# xmcd CD database file
#
# Track frame offsets:
#	150
#	19325
#	41030
#
# Disc length: 800 seconds
#
# Revision: 0
# Processed by: cddbd v1.5.1PL0 Copyright (c) Steve Scherf et al.
# Submitted via: CDex 1.51
#
DISCID=20031e03
DTITLE=工藤静香 - メタモルフォーゼ
DYEAR=1991
DGENRE=JPop
TTITLE0=メタモルフォーゼ
TTITLE1=Ri・a・ru
TTITLE2=メタモルフォーゼ（カラオケ)
EXTD=YEAR: 1991
EXTT0=
EXTT1=
EXTT2=
PLAYORDER=
